<?xml version="1.0" standalone="no"?>
<!DOCTYPE svg PUBLIC "-//W3C//DTD SVG 20010904//EN"
 "http://www.w3.org/TR/2001/REC-SVG-20010904/DTD/svg10.dtd">
<svg version="1.0" xmlns="http://www.w3.org/2000/svg"
 width="300.000000pt" height="300.000000pt" viewBox="0 0 300.000000 300.000000"
 preserveAspectRatio="xMidYMid meet">
<metadata>
Created by potrace 1.10, written by Peter Selinger 2001-2011
</metadata>
<g transform="translate(0.000000,300.000000) scale(0.100000,-0.100000)"
fill="#000000" stroke="none">
<path d="M956 2141 c-40 -44 -6 -91 67 -91 l47 0 0 -426 c0 -274 4 -432 10
-445 7 -12 21 -19 40 -19 50 0 54 19 47 265 -4 121 -7 269 -7 329 0 270 -16
-25 -24 -443 -1 -65 -5 -96 -14 -99 -6 -2 -12 0 -13 5 -2 16 -6 173 -13 488
-4 176 -10 328 -12 338 -4 12 -16 17 -40 17 -55 0 -74 15 -71 55 l2 35 98 0
97 0 2 -182 c2 -165 3 -170 5 -50 l4 132 423 0 c397 0 424 1 439 18 22 24 21
55 -2 76 -15 14 -37 16 -147 13 l-129 -3 135 -3 c103 -3 123 -6 85 -11 l-50
-7 46 -1 c34 -2 49 -7 53 -19 16 -41 -8 -43 -435 -43 l-407 0 -4 23 c-10 59
-22 56 285 60 248 2 235 3 -109 4 -366 2 -392 1 -408 -16z"/>
<path d="M1733 2133 c26 -2 68 -2 95 0 26 2 4 3 -48 3 -52 0 -74 -1 -47 -3z"/>
<path d="M1322 1639 c3 -263 5 -287 24 -329 33 -70 69 -107 130 -129 49 -19
77 -21 273 -21 198 0 219 2 234 18 22 24 21 34 -2 52 -11 7 -18 16 -16 19 2 3
-88 5 -198 3 -120 -2 -216 1 -237 7 -20 6 -51 27 -70 46 l-35 36 0 237 0 237
133 2 c74 0 136 4 139 7 9 9 -260 7 -273 -2 -14 -9 -27 -173 -28 -342 -1 -123
-1 -126 29 -169 53 -78 80 -86 307 -89 156 -3 199 -6 208 -18 15 -17 34 -16
-215 -14 -176 1 -194 3 -240 24 -58 26 -106 81 -123 141 -11 40 -23 262 -24
429 0 64 4 91 13 97 8 5 97 9 198 8 101 0 186 2 189 5 6 6 2 6 -239 10 -86 2
-162 6 -168 11 -10 5 -12 -56 -9 -276z"/>
<path d="M1790 1889 c11 -8 8 -9 -15 -5 -27 6 -28 5 -10 -6 11 -7 23 -13 26
-13 8 0 54 -55 68 -83 14 -26 21 -143 14 -210 -4 -33 -9 -42 -22 -40 -13 3
-17 20 -19 98 -4 132 -36 191 -102 189 -24 -1 -23 -1 5 -10 53 -15 69 -57 75
-199 5 -116 6 -125 25 -128 11 -1 31 7 43 19 22 20 23 27 20 144 -2 71 -7 121
-12 117 -5 -3 -6 3 -3 12 12 31 -64 126 -100 126 -4 0 -1 -5 7 -11z m69 -63
c25 -39 28 -62 4 -26 -9 14 -28 38 -42 54 -23 25 -24 27 -4 17 11 -6 31 -26
42 -45z"/>
<path d="M820 991 c0 -13 8 -21 23 -23 21 -3 22 -8 25 -96 2 -82 5 -93 20 -90
14 3 17 17 18 93 2 89 2 90 28 93 18 2 26 9 26 23 0 17 -7 19 -70 19 -62 0
-70 -2 -70 -19z"/>
<path d="M1170 914 c0 -52 5 -104 10 -115 15 -27 60 -26 60 1 0 14 -6 20 -16
18 -15 -3 -16 8 -15 80 1 46 5 90 8 98 4 10 -3 14 -21 14 l-26 0 0 -96z"/>
<path d="M1789 1006 c-2 -2 -3 -54 -1 -115 3 -102 5 -111 23 -111 14 0 19 6
18 28 -2 23 -2 24 -6 5 -2 -13 -9 -23 -14 -23 -5 0 -9 47 -9 105 0 106 16 146
23 58 l3 -48 2 53 c2 44 -1 52 -16 52 -10 0 -21 -2 -23 -4z"/>
<path d="M1266 968 c-3 -13 -6 -53 -6 -89 0 -51 4 -70 18 -82 30 -28 77 -21
65 9 -3 9 -13 12 -30 8 -25 -7 -25 -6 -18 34 4 26 2 47 -7 62 -11 18 -11 22 5
31 9 6 17 19 17 29 0 28 -36 26 -44 -2z"/>
<path d="M1859 920 c-20 -22 -32 -40 -27 -40 5 0 21 14 35 30 34 41 52 38 20
-3 l-25 -32 30 -43 c23 -33 26 -42 13 -42 -9 0 -25 16 -36 35 -12 19 -25 35
-29 35 -5 0 3 -18 17 -40 21 -31 33 -40 55 -40 l28 0 -34 49 -34 49 33 32 c19
18 32 37 29 42 -12 18 -42 6 -75 -32z"/>
<path d="M1005 925 c-53 -53 -16 -145 58 -145 47 0 78 35 75 82 -2 20 -7 34
-12 30 -5 -3 -7 2 -3 11 8 21 -28 47 -66 47 -16 0 -38 -10 -52 -25z m79 -28
c22 -16 18 -55 -6 -71 -26 -16 -70 11 -62 38 14 46 36 56 68 33z"/>
<path d="M1313 943 c-7 -2 -13 -11 -13 -20 0 -21 44 -13 48 10 3 17 -10 21
-35 10z"/>
<path d="M1369 880 c-1 -39 -2 -76 -3 -82 -1 -7 9 -14 22 -16 21 -3 22 0 22
53 0 50 2 56 26 65 41 16 27 43 -24 47 l-42 3 -1 -70z"/>
<path d="M1487 943 c-18 -17 -5 -33 27 -33 19 0 38 -4 41 -10 4 -6 -6 -10 -24
-10 -37 0 -61 -23 -61 -59 0 -39 17 -50 78 -49 l52 0 -2 46 c-1 41 -2 42 -5
12 -4 -33 -23 -68 -23 -43 0 6 -14 10 -32 9 -28 -1 -32 2 -34 26 -2 15 1 30 7
33 5 3 7 0 4 -7 -4 -9 4 -13 24 -13 18 0 27 4 24 12 -3 6 -12 9 -21 7 -9 -3 0
5 21 17 41 25 47 43 18 59 -22 11 -84 14 -94 3z m99 -16 c2 -2 -17 -4 -43 -4
-30 -1 -41 2 -32 8 13 8 66 6 75 -4z"/>
<path d="M1655 924 c-51 -55 -18 -144 54 -144 41 0 62 15 54 36 -4 11 -15 13
-39 8 -29 -5 -35 -3 -43 17 -15 42 7 72 45 63 14 -4 23 0 28 11 9 25 -2 35
-40 35 -25 0 -42 -8 -59 -26z m83 1 c-2 -5 -13 -8 -25 -7 -14 2 -27 -5 -38
-22 -14 -22 -15 -29 -3 -53 11 -22 20 -28 46 -28 18 0 31 -4 29 -10 -6 -17
-47 -17 -73 -1 -52 35 -19 142 42 134 14 -2 23 -7 22 -13z"/>
<path d="M1964 929 c-28 -31 -26 -102 3 -131 38 -38 123 -26 107 15 -4 12 -13
15 -30 11 -13 -3 -32 -3 -41 2 -13 6 -6 9 27 13 40 5 45 9 48 35 7 61 -73 100
-114 55z m88 -6 c10 -9 18 -29 18 -45 0 -27 -2 -28 -45 -28 -25 0 -45 -4 -45
-9 0 -17 31 -33 55 -29 32 7 42 -8 15 -22 -49 -26 -108 30 -95 91 13 56 59 77
97 42z"/>
<path d="M1992 908 c-7 -7 -12 -16 -12 -21 0 -5 7 -2 15 7 16 15 49 11 39 -5
-3 -5 0 -9 5 -9 6 0 11 4 11 8 0 12 -22 32 -35 32 -6 0 -16 -5 -23 -12z"/>
<path d="M2100 864 c0 -83 0 -84 25 -84 23 0 25 4 25 44 0 57 8 76 31 76 13 0
19 7 19 24 0 22 -4 24 -50 24 l-50 1 0 -85z m90 60 c0 -8 -7 -14 -15 -14 -21
0 -35 -32 -35 -80 0 -29 -4 -40 -12 -38 -12 4 -23 110 -14 133 6 17 76 16 76
-1z"/>
</g>
</svg>
